<?xml version="1.0" encoding="utf-8"?><svg xmlns="http://www.w3.org/2000/svg" xmlns:xlink="http://www.w3.org/1999/xlink"><symbol fill="none" viewBox="0 0 44 44" id="cart" xmlns="http://www.w3.org/2000/svg"><path d="M22 4.125c-3.776 0-6.875 3.1-6.875 6.875v1.375h-6.79l-.085 1.29-1.375 24.75-.087 1.46H37.21l-.085-1.462-1.375-24.75-.087-1.288h-6.788V11c0-3.776-3.1-6.875-6.875-6.875zm0 2.75A4.125 4.125 0 0126.125 11v1.375h-8.25V11A4.125 4.125 0 0122 6.875zm-11.087 8.25h4.212v4.125h2.75v-4.125h8.25v4.125h2.75v-4.125h4.212l1.203 22H9.712l1.201-22z" fill="#000"/></symbol><symbol fill="none" viewBox="0 0 22 22" id="leaf" xmlns="http://www.w3.org/2000/svg"><path d="M20.625 0C11.307 0 3.643 7.168 2.83 16.278c1.548-2.183 3.444-4.284 5.812-6.7a.459.459 0 01.654.642 109.037 109.037 0 00-1.693 1.767l-.11.12c-2.926 3.133-5.018 5.86-6.537 9.247a.459.459 0 00.837.376 25.158 25.158 0 011.874-3.412 17.861 17.861 0 0015.284-9.392.46.46 0 00-.01-.453.462.462 0 00-.394-.223H16.85l3.044-1.74a.46.46 0 00.207-.248 17.81 17.81 0 00.982-5.804.459.459 0 00-.458-.458z" fill="#000"/></symbol><symbol viewBox="0 0 8 16" id="main-arrow-down" xmlns="http://www.w3.org/2000/svg"><path d="M3.646 15.354a.5.5 0 00.708 0l3.182-3.182a.5.5 0 10-.708-.708L4 14.293l-2.828-2.829a.5.5 0 10-.708.708l3.182 3.182zM3.5 0v15h1V0h-1z"/></symbol></svg>