<svg width="97" height="65" viewBox="0 0 271 176" fill="none" xmlns="http://www.w3.org/2000/svg"><path d="M270.1.5c-10 13.3-19 16.2-29.1 17.8 1.3 6.6 6.9 11 6.9 11s-10-6-11.9-10.3c-8.9 1.2-18.8 2.5-31.1 9.3-2.5 6.2-2.3 18.5-2 27.9 0 0-3.2-5.1-4.4-13-1.2-7.7-.3-10.7-.2-10.8-4.5 3-9.3 6.8-14.5 11.6-1.3 1.2-2.6 2.3-3.9 3.4-8-3.4-16.9-5.3-26.1-5.3-27.6 0-51.4 16.8-61.6 40.7-11.3 2-26.3 4.2-32.6 8.2-17.3 11.1-13.6 15.2-20.2 24.4-.3-.1-.6-.2-1-.3-1-.4-2-.7-3-1.1.9-.9 2-2.3 3-4.2 2.8-5 6.5-13.2 11.7-16.9-6.9 1.8-7.9-1.5-15.4 5.7-5 4.7-7.3 9.4-9.1 11.9-.7-.2-1.4-.5-2.1-.7-2.4-.8-14.3-5-16.2-5.6-1-.3-1.8-.7-2.6-.9-.8-.2-1.6-.3-2.3-.2-1.4.1-2.4.6-2.4.6s.2 1.1 1.1 2.2c.4.6 1 1.1 1.7 1.6.7.4 1.6.8 2.5 1.3 1.7.8 11.6 4.6 15.3 6 1.4 6.5 5.7 18.4 8.6 22.1 3.5 4.5 13.7 8.9 13.7 8.9-1.9-2.8-2.5-12.4-2.5-12.4 5.3 10.3 11.1 16.4 11.1 16.4 7.5 6.4 15.8 9.3 15.8 9.3-5.1-4.9-17.7-26.8-19.7-37.8 1.2-.1 2.1-.2 2.7-.3 25.9 51.5 35 47.6 62.3 52.1 5.8 1 7.7 1.3 13.5 1.3-2-2.4-3.7-4.8-5.2-7.3 9.7 5.5 20.9 8.6 32.8 8.6 19.2 0 36.6-8.1 48.8-21.1 4.6-3.1 14.6-13.8 18.9-17.3-2.2-.5-4.2-1.2-6.2-2.1.1-.3.3-.7.4-1 2.7.2 6.1.1 10.1-.5 3-2.6 3.5-3.3 6.3-6 1.8-1.8 6.9-7.2 8.5-9-5.6-1.4-14.2-3.5-19.9-7.3v-1.8c5.5 2.5 15.5 6 24 4.4 13.5-15.9 15.4-26.7 19.1-52.3l-10.8-2.4s5.6-.7 11.9-5.3c1.5-14.1 3.1-31.4 5.3-53.5zm-53.3 108.4c0 34.8-28.3 63.2-63.2 63.2-34.9 0-63.2-28.3-63.2-63.2 0-34.8 28.3-63.2 63.2-63.2 34.9 0 63.2 28.4 63.2 63.2zM84.9 126.8c-4.7-.1-8.8-.7-12.1-1.3-3.3-.6-5.9-1.4-7.6-1.8-1.7-.5-2.7-.8-2.7-.8s1-.1 2.8-.2c1.8-.2 4.4-.1 7.7-.2s7.3-.1 11.8-.2H88c.3 1.6.7 3.2 1.2 4.8-1.5-.1-2.9-.2-4.3-.3zM262.1 21.7c-.6 1.6-1.7 4-3.1 6.9-.7 1.5-1.5 3.1-2.5 4.8-.9 1.7-2 3.6-3.2 5.5-1.2 2-2.5 4-4 6.1-1.4 2.1-3.1 4.3-4.8 6.5-1.7 2.2-3.6 4.5-5.6 6.8-2.1 2.2-4.1 4.6-6.4 6.9-4.5 4.7-9.6 9.2-15 13.8l-3 2.4c-.7-1.7-1.5-3.3-2.4-4.9.7-.5 1.3-1 2-1.6 10.8-8.6 19.9-17.7 27.2-26 3.6-4.2 6.9-8 9.5-11.7 1.4-1.8 2.6-3.5 3.7-5.1 1.1-1.6 2.2-3 3.1-4.4.9-1.4 1.7-2.6 2.4-3.6.7-1.1 1.2-2 1.7-2.8.9-1.5 1.4-2.3 1.4-2.3s-.3 1.1-1 2.7z" fill="#8FD3F5"/><path d="M88 122.1c-1.1 0-2.2.1-3.2 0-4.6.1-8.6.1-11.8.2-3.3.2-5.9.1-7.7.2-1.8.1-2.8.2-2.8.2s.9.3 2.7.8c1.7.5 4.3 1.3 7.6 1.8 3.3.6 7.4 1.2 12.1 1.3 1.4.1 2.8.1 4.3.1-.4-1.3-.8-2.9-1.2-4.6zM260.1 24.3c-.7 1.1-1.5 2.3-2.4 3.6-.9 1.4-1.9 2.8-3.1 4.4-1.1 1.6-2.3 3.3-3.7 5.1-2.7 3.6-5.9 7.5-9.5 11.7-7.3 8.3-16.5 17.4-27.2 26-.7.5-1.3 1-2 1.6.9 1.6 1.7 3.2 2.4 4.9l3-2.4c5.4-4.6 10.5-9.1 15-13.8 2.3-2.3 4.4-4.7 6.4-6.9 2-2.3 3.9-4.6 5.6-6.8 1.7-2.2 3.4-4.4 4.8-6.5 1.5-2.1 2.8-4.1 4-6.1 1.2-1.9 2.3-3.8 3.2-5.5 1-1.7 1.8-3.3 2.5-4.8 1.5-2.9 2.5-5.3 3.1-6.9.7-1.6 1-2.5 1-2.5s-.5.8-1.4 2.3c-.5.6-1.1 1.5-1.7 2.6zM152.4 56c0-.2-.1-.3-.1-.4-.1-.2-.4-.2-.9-.2-1.6 0-3.2.8-4.8 2.4-1.1 1.1-2 2.4-2.9 3.8 1.5-1.5 3.2-2.8 5.1-3.9 1.4-.7 2.5-1.3 3.6-1.7zM152.4 99.3c0-.2-.1-.3-.1-.4-.1-.2-.4-.2-.9-.2-1.6 0-3.2.8-4.8 2.4-1.1 1.1-2 2.4-2.9 3.8 1.5-1.5 3.2-2.8 5.1-3.9 1.3-.8 2.5-1.3 3.6-1.7z" fill="#fff"/><path d="M158 99.5c.2-.7.5-1.4.7-2.2 1-2.9 2.5-6.9 4.4-11.9-2.7 0-5.1.1-7.1.1-2.8.1-5.3.2-7.5.4-2.7 6.6-4.9 12-6.6 16.3 1.4-1.3 2.9-2.5 4.6-3.5 2.6-1.5 4.8-2.3 6.7-2.3 1.3 0 2.1.3 2.6 1 .2.3.4.7.5 1.2.8.2 1.3.5 1.7.9z" fill="#fff"/><path d="M153.6 45.7c-34.8 0-63.2 28.3-63.2 63.2 0 34.8 28.3 63.2 63.2 63.2 34.9 0 63.2-28.3 63.2-63.2 0-34.8-28.4-63.2-63.2-63.2zm16.8 82.9c-1.5 4.4-2.6 7.9-3.3 10.4-2.4 8-3.8 14.1-4.2 18.5-.1.9-.1 1.8-.1 2.7-1.9-.2-3.2-.8-3.9-1.6-.2-.3-.4-.6-.5-1-.8-.3-1.4-.7-1.8-1.2-.7-.9-1-2.3-.8-4.3.3-2.9 1.2-6.8 2.9-11.5 1-2.9 2.5-6.9 4.4-11.9-2.7 0-5.1 0-7.1.1-2.8.1-5.3.2-7.5.4-5.6 13.8-9.1 22.5-10.5 26.2-.7 1.6-1.5 2.8-2.6 3.7-1.1.8-2.1 1.2-3.1 1.2.3-1.2.7-2.4 1-3.6l-.3.3c-1.1.8-2.1 1.2-3.1 1.2 1-3.7 2.3-7.8 3.8-12.1 1.4-3.9 3.5-9.2 6.2-15.9l-1.7.2c.1-1 .6-1.8 1.5-2.6l-3.7.2c.2-2.2 2.5-3.8 6.7-4.7 2.4-5.7 5.1-12.1 8.2-19.1.1-.2.3-.7.7-1.7.2-.5.4-1 .5-1.4-1 .4-2.1 1.1-3.1 2.2-1.6 1.6-2.9 3.6-4.1 5.9-1.1 2.3-1.8 4.3-1.9 6-.1 1 0 1.8.2 2.6-1.6 0-2.7-.4-3.4-1.2-.3-.3-.5-.7-.6-1.2-.7-.2-1.3-.5-1.7-1-.1-.2-.3-.3-.4-.5-.5.8-1 1.4-1.7 1.9-1.1.8-2.1 1.2-3.1 1.2.3-1.2.7-2.4 1-3.6l-.3.3c-1.1.8-2.1 1.2-3.1 1.2 1-3.7 2.3-7.8 3.8-12.1 1.4-3.9 3.5-9.2 6.2-15.9l-1.7.2c.1-1 .6-1.8 1.5-2.6l-3.9.4c.2-2.2 2.5-3.8 6.7-4.7 2.4-5.7 5.1-12.1 8.2-19.1.1-.2.3-.7.7-1.7.2-.5.4-1 .5-1.4-1 .4-2.1 1.1-3.1 2.1-1.6 1.6-2.9 3.6-4.1 5.9-1.1 2.3-1.8 4.3-1.9 6-.1 1 0 1.8.2 2.6-1.6 0-2.7-.4-3.4-1.2-.3-.3-.5-.7-.6-1.2-.7-.2-1.3-.5-1.7-1-.7-.8-.9-1.8-.8-3.2.2-2.2 1.2-4.4 3.2-6.7 1.9-2.3 4.1-4.2 6.7-5.7 2.6-1.5 4.8-2.3 6.7-2.3 1.3 0 2.1.3 2.6 1 .2.3.4.7.5 1.2.9.1 1.5.4 1.8 1 .5.7.7 1.6.6 2.6-.1.9-.4 2-.9 3.3l-6.8 17.1h1.2c4 0 8.3.2 12.9.7 2-5.2 4-10 5.8-14.3 1.8-4.3 3.1-7.2 3.9-8.5 1.5-2.6 3-4 4.5-4-1.2 2.5-2.6 6.1-4.4 10.6.9-2.1 1.7-3.6 2.2-4.5 1.5-2.6 3-4 4.5-4-1.3 2.7-2.8 6.5-4.7 11.5-1.7 4.4-3.3 8.9-5 13.7 1.2.1 2.1.1 2.7.1-1 .9-1.9 1.5-2.7 1.9.5 0 1.1.1 1.8.1 1.5.1 2.6.2 3.3.2-1.1 1.1-2.2 1.7-3.2 2-1 .3-2.1.4-3.5.4-1.5 4.4-2.6 7.9-3.3 10.4-2.4 8-3.8 14.1-4.2 18.5-.1.9-.1 1.8-.1 2.7-1.9-.2-3.2-.8-3.9-1.6-.2-.3-.4-.6-.5-1-.8-.3-1.4-.7-1.8-1.2-.5-.6-.7-1.5-.8-2.5l-4.8 12.1h1.2c4 0 8.3.2 12.9.7 2-5.2 4-10 5.8-14.3 1.8-4.3 3.1-7.2 3.9-8.5 1.5-2.6 3-4 4.5-4-1.2 2.5-2.6 6.1-4.4 10.6.9-2.1 1.7-3.6 2.2-4.5 1.5-2.6 3-4 4.5-4-1.3 2.7-2.8 6.5-4.7 11.5-1.7 4.4-3.3 8.9-5 13.7 1.2.1 2.1.1 2.7.1-1 .9-1.9 1.5-2.7 1.9.5 0 1.1.1 1.8.1 1.5.1 2.6.2 3.3.2-1.1 1.1-2.2 1.7-3.2 2-.7.1-1.8.3-3.2.3z" fill="#fff"/><path d="M152.4 56c-1.1.4-2.3.9-3.5 1.7-1.9 1.1-3.6 2.4-5.1 3.9l-1.2 2.1c-1.1 2.3-1.8 4.3-1.9 6-.1 1 0 1.8.2 2.6-.6 0-1.2-.1-1.7-.2.1.4.3.8.6 1.2.7.8 1.8 1.2 3.4 1.2-.2-.8-.2-1.6-.2-2.6.2-1.7.8-3.7 1.9-6 1.1-2.3 2.5-4.2 4.1-5.9 1.1-1.1 2.1-1.8 3.1-2.1.1-.5.2-.9.2-1.4.1-.2.1-.3.1-.5zM156.4 57c-.1.9-.4 2-.9 3.3l-7.7 19.4c1.3-.1 2.3-.1 3.2-.1l6.8-17.1c.5-1.3.8-2.4.9-3.3.1-1.1-.1-1.9-.6-2.6-.4-.5-1-.9-1.8-1 .2.3.2.8.1 1.4zM139.9 84.4c-.9.7-1.4 1.6-1.5 2.6l1.7-.2c.3-.8.7-1.6 1-2.5l-1.2.1zM136.7 111.3c.2-2.2 1.2-4.4 3.2-6.7.7-.8 1.4-1.5 2.1-2.2 1.7-4.3 3.9-9.7 6.6-16.3 2.2-.2 4.6-.3 7.5-.4 2.1-.1 4.4-.1 7.1-.1.3-.7.6-1.4.9-2.2-4.1 0-7.5 0-10.3.1-2.8.1-5.3.2-7.5.4-5.6 13.8-9.1 22.5-10.5 26.2-.6 1.5-1.4 2.6-2.3 3.4-.4 1.2-.7 2.5-1 3.6 1 0 2-.4 3.1-1.2.6-.5 1.2-1.1 1.7-1.9-.6-.8-.7-1.7-.6-2.7zM169.1 80.4c.5 0 1.3.1 2.4.2h.6c1.7-4.7 3.3-9.3 5-13.7 1.9-5 3.5-8.8 4.7-11.5-1.6 0-3.1 1.3-4.5 4-.5.9-1.2 2.4-2.2 4.5l-.3.9c-1.9 5-3.8 10.2-5.7 15.6zM168.1 83.2c-1.5 4.4-2.6 7.9-3.3 10.4-2.4 8-3.8 14.1-4.2 18.5-.1.9-.1 1.8-.1 2.7-.8-.1-1.5-.3-2.1-.5.1.4.3.7.5 1 .7.9 2 1.4 3.9 1.6 0-.9 0-1.8.1-2.7.4-4.3 1.8-10.5 4.2-18.5.7-2.6 1.8-6.1 3.3-10.4 1.3 0 2.5-.1 3.5-.4 1-.3 2-1 3.2-2-.7 0-1.7-.1-3.3-.2-.7-.1-1.3-.1-1.8-.1-.1.1-.3.1-.4.2-1 .3-2.1.4-3.5.4zM153.6 126.6c-2.8.1-5.3.2-7.5.4-5.6 13.8-9.1 22.5-10.5 26.2-.6 1.5-1.4 2.6-2.3 3.4-.4 1.2-.7 2.5-1 3.6 1 0 2-.4 3.1-1.2 1.1-.8 2-2 2.6-3.7 1.4-3.7 4.9-12.4 10.5-26.2 2.2-.2 4.6-.3 7.5-.4 2.1-.1 4.4-.1 7.1-.1.3-.7.6-1.4.9-2.2-4.1.1-7.5.1-10.4.2z" fill="#E9F5FD"/><path d="M152.4 99.3c-1.1.4-2.3.9-3.5 1.7-1.9 1.1-3.6 2.4-5.1 3.9l-1.2 2.1c-1.1 2.3-1.8 4.3-1.9 6-.1 1 0 1.8.2 2.6-.6 0-1.2-.1-1.7-.2.1.4.3.8.6 1.2.7.8 1.8 1.2 3.4 1.2-.2-.8-.2-1.6-.2-2.6.2-1.7.8-3.7 1.9-6 1.1-2.3 2.5-4.2 4.1-5.9 1.1-1.1 2.1-1.8 3.1-2.2.1-.5.2-.9.2-1.4.1-.1.1-.3.1-.4zM173.8 126c-.7-.1-1.3-.1-1.8-.1-.1.1-.3.1-.4.2-1 .3-2.1.4-3.5.4-1.5 4.4-2.6 7.9-3.3 10.4-2.4 8-3.8 14.1-4.2 18.5-.1.9-.1 1.8-.1 2.7-.8-.1-1.5-.3-2.1-.5.1.4.3.7.5 1 .7.9 2 1.4 3.9 1.6 0-.9 0-1.8.1-2.7.4-4.3 1.8-10.5 4.2-18.5.7-2.6 1.8-6.1 3.3-10.4 1.3 0 2.5-.1 3.5-.4 1-.3 2-1 3.2-2-.7-.1-1.8-.1-3.3-.2zM169 123.7c.5 0 1.3.1 2.4.2h.6c1.7-4.7 3.3-9.3 5-13.7 1.9-5 3.5-8.8 4.7-11.5-1.6 0-3.1 1.3-4.5 4-.5.9-1.2 2.4-2.2 4.5-.1.3-.2.6-.4.9-1.8 4.9-3.7 10.1-5.6 15.6zM139.9 127.6c-.9.7-1.4 1.6-1.5 2.6l1.7-.2c.3-.8.7-1.6 1-2.5l-1.2.1zM155.9 108.9c.2-2.5.9-5.6 2.1-9.4-.4-.4-.9-.7-1.7-.8.1.4.1.9.1 1.5-.1.9-.4 2-.9 3.3l-7.7 19.4c1.3-.1 2.3-.1 3.2-.1l4.8-12.1c0-.6 0-1.2.1-1.8z" fill="#E9F5FD"/><path d="M135.7 110c1.4-3.7 4.9-12.4 10.5-26.2 2.2-.2 4.6-.3 7.5-.4 2.8-.1 6.3-.1 10.3-.1-.3.7-.6 1.5-.9 2.2-2 5-3.5 9-4.4 11.9-.3.7-.5 1.5-.7 2.2-1.2 3.7-1.9 6.9-2.1 9.4-.1.7 0 1.2 0 1.8.1 1.1.3 1.9.8 2.5.4.5 1 .9 1.8 1.2.6.2 1.3.4 2.1.5 0-.9 0-1.8.1-2.7.4-4.3 1.8-10.5 4.2-18.5.7-2.6 1.8-6.1 3.3-10.4 1.3 0 2.5-.1 3.5-.4.1 0 .3-.1.4-.2.9-.3 1.8-.9 2.7-1.9-.6 0-1.5 0-2.7-.1h-.6c-1.1-.1-1.9-.2-2.4-.2 1.9-5.4 3.8-10.7 5.7-15.6l.3-.9c1.7-4.5 3.2-8.1 4.4-10.6-1.6 0-3.1 1.3-4.5 4-.8 1.4-2.1 4.2-3.9 8.5-1.8 4.3-3.8 9.1-5.8 14.3-4.6-.5-8.9-.7-12.9-.7h-1.2c-.9 0-2 .1-3.2.1l7.7-19.4c.5-1.3.8-2.4.9-3.3 0-.5 0-1-.1-1.5-.1-.4-.3-.8-.5-1.2-.5-.7-1.3-1-2.6-1-1.9 0-4.1.8-6.7 2.3-2.6 1.5-4.8 3.4-6.7 5.7-1.9 2.3-3 4.6-3.2 6.7-.1 1.3.2 2.4.8 3.2.4.5 1 .8 1.7 1 .5.1 1 .2 1.7.2-.2-.8-.2-1.6-.2-2.6.2-1.7.8-3.7 1.9-6l1.2-2.1c.9-1.4 1.8-2.7 2.9-3.8 1.6-1.6 3.2-2.4 4.8-2.4.5 0 .7.1.9.2.1.1.1.2.1.4v.5c0 .5-.1.9-.2 1.4-.1.5-.3 1-.5 1.4-.4 1-.7 1.5-.7 1.7-3.1 7-5.8 13.4-8.2 19.1-4.2.9-6.5 2.4-6.7 4.7l3.9-.4 1.2-.1c-.4.9-.7 1.7-1 2.5-2.8 6.7-4.9 12.1-6.2 15.9-1.6 4.4-2.8 8.4-3.8 12.1 1 0 2-.4 3.1-1.2l.3-.3c.5-.8 1.3-2 1.9-3.4z" fill="#5BC4F1"/><path d="M160.7 155.3c.4-4.3 1.8-10.5 4.2-18.5.7-2.6 1.8-6.1 3.3-10.4 1.3 0 2.5-.1 3.5-.4.1 0 .3-.1.4-.2.9-.3 1.8-.9 2.7-1.9-.6 0-1.5 0-2.7-.1h-.6c-1.1-.1-1.9-.2-2.4-.2 1.9-5.4 3.8-10.7 5.7-15.6.1-.3.2-.6.4-.9 1.7-4.5 3.2-8.1 4.4-10.6-1.6 0-3.1 1.3-4.5 4-.8 1.4-2.1 4.2-3.9 8.5-1.8 4.3-3.8 9.1-5.8 14.3-4.6-.5-8.9-.7-12.9-.7h-1.2c-.9 0-2 .1-3.2.1l7.7-19.4c.5-1.3.8-2.4.9-3.3 0-.5 0-1-.1-1.5-.1-.4-.3-.8-.5-1.2-.5-.7-1.3-1-2.6-1-1.9 0-4.1.8-6.7 2.3-1.7 1-3.2 2.1-4.6 3.5-.7.7-1.5 1.4-2.1 2.2-1.9 2.3-3 4.6-3.2 6.7-.1 1 .1 1.9.5 2.6.1.2.2.4.4.5.4.5 1 .8 1.7 1 .5.1 1 .2 1.7.2-.2-.8-.2-1.6-.2-2.6.2-1.7.8-3.7 1.9-6l1.2-2.1c.9-1.4 1.8-2.7 2.9-3.8 1.6-1.6 3.2-2.4 4.8-2.4.5 0 .7.1.9.2.1.1.1.2.1.4v.5c0 .5-.1.9-.2 1.4-.1.5-.3 1-.5 1.4-.4 1-.7 1.5-.7 1.7-3.1 7-5.8 13.4-8.2 19.1-4.2.9-6.5 2.4-6.7 4.7l3.9-.4 1.2-.1c-.4.9-.7 1.7-1 2.5-2.8 6.7-4.9 12.1-6.2 15.9-1.6 4.4-2.8 8.4-3.8 12.1 1 0 2-.4 3.1-1.2l.3-.3c1-.8 1.7-1.9 2.3-3.4 1.4-3.7 4.9-12.4 10.5-26.2 2.2-.2 4.6-.3 7.5-.4 2.8-.1 6.3-.1 10.3-.1-.3.7-.6 1.5-.9 2.2-2 5-3.5 9-4.4 11.9-1.6 4.7-2.6 8.6-2.9 11.5-.2 2 .1 3.4.8 4.3.4.5 1 .9 1.8 1.2.6.2 1.3.4 2.1.5-.6-.6-.5-1.6-.4-2.5z" fill="#5BC4F1"/></svg>