<svg width="19" height="19" viewBox="0 0 19 19" fill="none" xmlns="http://www.w3.org/2000/svg">
<path d="M16.6875 18.8438H16.5653C2.44189 18.0316 0.436573 6.11469 0.15626 2.47781C0.133673 2.19504 0.167105 1.91059 0.254639 1.64076C0.342173 1.37094 0.482088 1.12103 0.666369 0.905369C0.85065 0.689706 1.07567 0.512526 1.32855 0.383978C1.58142 0.255431 1.85718 0.178044 2.14001 0.156251H6.10032C6.38822 0.155972 6.66957 0.242148 6.90793 0.403617C7.14629 0.565086 7.33067 0.794407 7.4372 1.06188L8.5297 3.75C8.63489 4.0113 8.66099 4.29774 8.60477 4.57375C8.54854 4.84976 8.41247 5.10317 8.21345 5.3025L6.68251 6.84781C6.92165 8.20679 7.57245 9.45951 8.54687 10.4365C9.52129 11.4135 10.7723 12.0676 12.1306 12.3103L13.6903 10.765C13.8926 10.5682 14.1484 10.4353 14.4258 10.3829C14.7032 10.3305 14.9898 10.3609 15.25 10.4703L17.9597 11.5556C18.2231 11.6655 18.4479 11.8513 18.6053 12.0894C18.7628 12.3275 18.8458 12.6071 18.8438 12.8925V16.6875C18.8438 17.2594 18.6166 17.8078 18.2122 18.2122C17.8078 18.6166 17.2594 18.8438 16.6875 18.8438ZM2.31251 1.59375C2.12189 1.59375 1.93907 1.66948 1.80428 1.80427C1.66949 1.93906 1.59376 2.12188 1.59376 2.3125V2.37C1.92439 6.625 4.0447 16.6875 16.6444 17.4062C16.7388 17.4121 16.8335 17.3992 16.9229 17.3684C17.0123 17.3376 17.0948 17.2894 17.1656 17.2266C17.2364 17.1639 17.2941 17.0877 17.3354 17.0026C17.3767 16.9175 17.4008 16.8251 17.4063 16.7306V12.8925L14.6966 11.8072L12.6338 13.8556L12.2888 13.8125C6.03563 13.0291 5.18751 6.77594 5.18751 6.71125L5.14438 6.36625L7.18564 4.30344L6.10751 1.59375H2.31251Z" fill="black"/>
</svg>
